<?xml version="1.0" encoding="utf-8"?>
<!DOCTYPE svg PUBLIC "-//W3C//DTD SVG 1.0//EN" "http://www.w3.org/TR/2001/REC-SVG-20010904/DTD/svg10.dtd">
<svg version="1.0" xmlns="http://www.w3.org/2000/svg" width="1000px" height="500px" viewBox="0 0 1000 500" preserveAspectRatio="xMidYMid meet">
 <g fill="#5c8f3d">
  <path d="M89 369.7 c0 -0.8 -1 -1.4 -2.3 -1.4 -3.4 0 -17.1 -6 -23.5 -10.3 -6.5 -4.4 -12.9 -10.4 -18.6 -17.3 -3.6 -4.4 -3.9 -5.4 -4.1 -11 -0.2 -9.4 -4.3 -16.1 -12.3 -20.1 -3.8 -2 -5.4 -5.1 -8.3 -16.5 -2.4 -9.2 -2.6 -29.5 -0.5 -38.4 0.7 -3.1 1 -6 0.5 -6.3 -2 -1.2 -0.7 -2.4 2.7 -2.4 2.8 0 3.5 0.3 3.1 1.5 -0.4 0.8 -0.3 1.7 0.2 1.9 0.4 0.3 1.1 4.6 1.4 9.5 0.7 9.1 2.8 16.2 7 23.6 1.9 3.3 2.8 4 5.2 3.9 1.7 0 3.6 -0.2 4.3 -0.5 0.9 -0.3 2.2 1.9 3.8 6.1 4.6 12.1 10.6 22.5 18.8 32.4 l4 4.8 -2.7 2 c-1.7 1.2 -2.7 2.9 -2.7 4.4 0 5.4 10.3 17.9 19.8 24 2.8 1.9 5.2 4.1 5.2 4.9 0 0.9 0.6 1.2 1.6 0.8 1.2 -0.4 1.5 0 1.2 2.3 -0.3 3 -3.8 4.9 -3.8 2.1z"/>
  <path d="M221.7 370.3 c-1.2 -1.1 -0.8 -5.5 0.4 -5.1 0.7 0.2 2.4 -0.7 3.8 -2 1.4 -1.3 5.5 -4.5 9 -7 7 -5.1 15.1 -15.6 15.1 -19.7 0 -1.4 -1.1 -3.2 -2.7 -4.5 -3 -2.3 -3.2 -1.8 3.5 -10 5.9 -7.2 11.9 -17.7 15.9 -27.4 2.1 -5.1 3.7 -7.9 4.5 -7.7 0.7 0.3 2.9 0.5 4.8 0.5 3.3 0.1 3.7 -0.3 6.8 -6.1 3.5 -6.7 6.2 -17 6.2 -24.3 0 -2.6 0.5 -5.1 1.1 -5.7 0.8 -0.8 0.8 -1.3 0 -1.7 -2.2 -1.4 -1 -2.6 2.4 -2.6 3.4 0 4.6 1.2 2.5 2.5 -0.7 0.4 -0.8 1.1 -0.2 1.8 1.9 2.3 3.3 12.3 3.3 22.7 0 11.6 -1.8 20.8 -5.6 29.7 -2.1 4.8 -3.3 6.2 -7 8.2 -7.2 3.8 -11.9 12.9 -10.8 20.9 0.5 3.7 0.2 4.3 -6.2 11.1 -3.7 3.9 -9.5 9.2 -12.8 11.7 -7.8 5.8 -22 12.6 -26.9 12.8 -2.3 0 -3.8 0.6 -3.8 1.4 0 1.3 -2.2 1.7 -3.3 0.5z"/>
  <path d="M408.9 348.8 c-2.9 -2.5 -3.8 -4.5 -6.4 -14.2 -10.9 -42.3 -8.2 -158.6 4.3 -179.9 2.5 -4.3 5.9 -4.3 8.8 0 4.7 7 8.2 28 10.4 62.8 2.2 34.1 0.3 82.5 -4.2 108.5 -1.5 8.9 -5.5 20.1 -8 22.3 -2.4 2 -3 2.1 -4.9 0.5z"/>
  <path d="M736.5 346.1 c-4 -6 -5.5 -17.2 -6.2 -45.3 l-0.5 -24.8 -8.2 7.8 c-8.7 8.1 -15.4 12.2 -20.2 12.2 -3.9 0 -15.3 -7.7 -22.6 -15.3 l-5.8 -5.9 0 9.8 c-0.1 34.9 -4.8 61.9 -11 63.9 -4.2 1.3 -8.1 -4.9 -10 -16 -1.8 -10.9 -2.5 -47.6 -1 -60.7 3 -27.2 6 -34.9 13.1 -33.4 8.6 1.7 21.4 13.2 33.4 30 l4.7 6.6 3.5 -5.7 c6.6 -11 16.7 -21.6 27.3 -28.6 3 -2.1 6.5 -3.7 7.7 -3.7 8.1 0 11.8 17.1 11.8 54 -0.1 20.7 -0.4 26.5 -2.3 37.3 -2.3 13.4 -3.1 15.7 -6.5 19.5 -2.9 3.1 -4.3 2.8 -7.2 -1.7z"/>
  <path d="M778.1 348.6 c-1.7 -2.1 -4.7 -11.4 -6.2 -19.6 -2 -10.7 -1.7 -49.7 0.4 -66 1.9 -14.5 3.8 -20.8 7.3 -24 l2.4 -2.3 2.4 2.2 c2.9 2.8 6.2 13.8 7.6 25.6 2.2 19.3 0.6 56.8 -3 73 -1.3 5.6 -5.7 12.5 -8 12.5 -1 0 -2.3 -0.6 -2.9 -1.4z"/>
  <path d="M905 349 c-7.3 -2 -19.7 -11.5 -35.7 -27.3 l-11.2 -11.1 -9.8 9.5 c-25 24.2 -41 34.2 -42.1 26.2 -0.8 -5.2 10.4 -22.6 26.3 -41.1 l9.7 -11.3 -2.8 -3.4 c-11.7 -13.7 -16.6 -20.1 -23.9 -30.9 -10.1 -15 -12 -21.6 -6.2 -21.6 5 0 17.1 9.1 39.1 29.4 l9.6 8.8 12.7 -11.7 c21.6 -19.8 33.9 -28.6 37.8 -27.1 1.4 0.5 1.7 1.5 1.2 5.2 -0.7 6.6 -11.9 22.9 -32.7 47.6 l-3.1 3.7 7.2 8.3 c9.6 11.1 23.1 29.1 26.3 35.2 2.8 5.2 3.4 11.1 1.4 11.8 -0.7 0.3 -2.4 0.2 -3.8 -0.2z"/>
  <path d="M496 345.3 c-17.5 -11.3 -40.3 -42.5 -51.4 -70.5 -2.7 -7 -3.2 -12 -1.6 -16.2 1.4 -3.9 3.8 -4.6 9 -2.9 7.2 2.5 12.3 6.6 22.3 18.3 19.4 22.5 35.3 50.8 36.5 64.6 0.4 5.3 0.2 6.4 -1.7 8.3 -3 3 -6.8 2.5 -13.1 -1.6z"/>
  <path d="M290.7 346.8 c-7.7 -2.1 -13.7 -11.5 -12.3 -19.3 1.6 -8.1 9 -14.5 16.9 -14.5 9.7 0 17.7 7.8 17.7 17.1 -0.1 4.7 -3.2 11.2 -6.6 13.6 -2.5 1.8 -9.9 4.5 -11.4 4.2 -0.3 -0.1 -2.2 -0.6 -4.3 -1.1z"/>
  <path d="M12.5 344.6 c-4.8 -2.1 -9.3 -7.9 -10.1 -13.1 -1.8 -12.3 8.9 -22.2 20.9 -19.4 12.5 2.9 17.7 18.2 9.4 27.6 -5.3 6 -13.3 7.9 -20.2 4.9z"/>
  <path d="M444.1 236.6 c-2.1 -2.2 -2.3 -3.3 -1.9 -8.6 1 -13.5 19.6 -42.2 41 -63.1 14.9 -14.6 23.1 -18 27.5 -11.3 1.5 2.3 1.5 3.3 0.4 8.6 -1.8 8.9 -4.5 15.5 -10.2 24.9 -11.8 19.8 -31.1 41.4 -42.9 48.2 -7.6 4.3 -10.8 4.6 -13.9 1.3z"/>
  <path d="M87.6 136.4 c-1.1 -2.8 -0.6 -5.4 0.9 -5.4 0.8 0 1.5 -0.4 1.5 -0.9 0 -1.5 12 -10.6 19.1 -14.5 8.3 -4.6 15.7 -7.1 25.2 -8.6 7.4 -1.2 7.5 -1.2 12.3 1.6 6.9 4.1 14.8 4 22.1 -0.1 5.1 -2.9 5.2 -2.9 12.3 -1.7 3.9 0.7 10.8 2.7 15.3 4.4 8.9 3.5 24.1 13.1 27.9 17.6 1.3 1.6 2.9 2.7 3.6 2.4 1.9 -0.6 1.5 4.8 -0.5 5.5 -0.9 0.4 -1.9 0.1 -2.1 -0.5 -0.2 -0.7 -1.4 -1.2 -2.6 -1.2 -1.2 0 -4.7 -1.3 -7.7 -3 -9.1 -4.9 -24.2 -7.5 -28.9 -5 -1.1 0.6 -2.2 2.6 -2.6 4.6 l-0.6 3.5 -4.7 -0.8 c-6.2 -1.1 -35.4 -1 -41.3 0.1 -4.7 0.8 -4.8 0.8 -4.8 -1.8 0 -4.2 -3.2 -6.6 -8.7 -6.6 -6.8 0 -16.3 2.5 -23.3 6 -3.3 1.6 -6.6 3 -7.4 3 -0.7 0 -1.6 0.7 -2 1.5 -0.7 2 -2.2 1.9 -3 -0.1z"/>
  <path d="M150.1 106.2 c-12.1 -6.1 -13.2 -22.5 -2.1 -29.8 16.5 -10.9 35.7 10.5 22.7 25.3 -5.5 6.2 -13.7 8.1 -20.6 4.5z"/>
 </g>
 <g fill="#fbc61f">
  <path d="M148.8 425 c-12 -6.5 -11.7 -24.3 0.5 -30.7 3.9 -2 11.5 -2 15.3 0 9 4.7 12.3 15.5 7.5 24.4 -3.8 7.2 -15.7 10.4 -23.3 6.3z"/>
  <path d="M128.2 392.5 c-10.7 -2.8 -23.9 -9.4 -32.9 -16.6 -6.4 -5 -7.6 -7.6 -4.8 -9.9 1.3 -1.1 2.8 -0.7 8.8 2.3 8.7 4.4 15.3 5.9 23.7 5.5 6.6 -0.3 7.4 -0.9 8.4 -5.9 l0.6 -2.6 8.2 1.4 c8 1.4 29.2 1.2 39.1 -0.3 3.6 -0.6 3.7 -0.5 3.7 2.4 0 4.5 2.3 5.7 9.9 5.4 8.1 -0.3 15.7 -2.4 23.3 -6.4 4.8 -2.6 6 -2.9 7.3 -1.8 2.7 2.2 1.2 5.2 -5 10.3 -11.5 9.3 -23.1 14.6 -37.5 17.1 -7.5 1.3 -7.5 1.3 -13 -1.6 -4.8 -2.6 -6.3 -2.9 -12.1 -2.6 -5.3 0.3 -7.3 0.9 -10.2 3.1 -4.3 3.3 -5.6 3.3 -17.5 0.2z"/>
  <path d="M630.3 346.7 c-4.9 -3.7 -12 -12.6 -22.7 -28.6 l-7.6 -11.4 -19.8 -0.1 -19.8 -0.1 -2.9 6.3 c-6.6 14.6 -20.8 34.7 -25.2 35.9 -4.4 1 -5.6 -1.3 -5.1 -9.7 1.2 -17.5 18.8 -60.4 35.8 -86.8 5.5 -8.7 12.1 -15.2 15.3 -15.2 1 0 4.8 2.8 8.3 6.2 11.4 10.9 31 42.6 44.1 71.2 6.8 14.8 9.3 22.6 9.3 29.1 0 7.2 -3.1 8.3 -9.7 3.2z m-38.3 -55.1 c0 -0.2 -3.2 -7 -7.1 -15.2 l-7.1 -14.9 -2.8 9 c-1.5 5 -3.9 11.8 -5.3 15.3 l-2.6 6.2 12.5 0 c6.8 0 12.4 -0.2 12.4 -0.4z"/>
  <path d="M20.7 248.8 c-2.3 -1.8 -3.8 -10.5 -3.9 -22.3 0 -10.4 1.5 -19 5.2 -28.8 1.8 -4.8 2.9 -6.2 7.8 -9.4 7.5 -5 11.6 -12.4 10.9 -19.6 -0.4 -4.5 -0.1 -5.2 3.8 -10 8.1 -9.9 20.5 -18.8 34 -24.4 9 -3.7 11 -4 11.9 -1.7 1.2 3.2 0.5 4.4 -5.1 8 -7.5 4.7 -11.8 8.8 -15.8 14.9 -5 7.7 -5.2 9.1 -1.7 12.3 l3 2.8 -2.9 3.4 c-7.7 9.1 -15.5 22.2 -19.9 33.5 -1.3 3.3 -2.4 6.1 -2.5 6.3 -0.1 0.1 -1.5 -0.2 -3.1 -0.8 -4.6 -1.8 -6.8 -0.5 -10.2 5.8 -3.6 6.8 -6.2 16.5 -6.2 23.8 0 4.4 -1.2 7.4 -3 7.4 -0.3 0 -1.4 -0.6 -2.3 -1.2z"/>
  <path d="M289.7 249.4 c-0.4 -0.4 -0.7 -3.2 -0.7 -6.3 0 -11.3 -5.4 -26.4 -10.7 -29.8 -1.9 -1.3 -2.6 -1.3 -5.1 -0.1 l-2.9 1.5 -3.8 -9.1 c-4.3 -10.3 -11.7 -22.6 -17.8 -29.9 l-4.1 -5 2.7 -2.1 c1.7 -1.4 2.7 -3.1 2.7 -4.8 0 -4.3 -7.8 -14.6 -15 -19.9 -3.6 -2.6 -7.6 -5.8 -8.9 -6.9 -2.3 -2.2 -2.3 -2.2 -0.4 -4.1 1.9 -1.9 2 -1.9 7.7 0.1 14.6 5 29.9 15.8 37.9 26.8 3 4 3.5 5.7 3.9 11.4 0.5 8.5 4 14.2 11 17.6 4.1 2.1 5 3.1 6.8 8 1.2 3 2.8 8.7 3.6 12.6 1.8 8.6 1.9 28.2 0.2 35.1 -1.1 4.2 -1.7 5 -3.8 5.3 -1.4 0.2 -2.9 0 -3.3 -0.4z"/>
  <path d="M290.4 186.9 c-4.5 -1.3 -10 -7.3 -11.2 -12.2 -2 -8 1.1 -15.3 8.4 -19.4 10.9 -6.3 25.4 2 25.4 14.5 0 7.7 -3.4 13 -10.5 16.3 -4.3 2 -7.3 2.2 -12.1 0.8z"/>
  <path d="M12.5 185.6 c-7.1 -3.1 -11.3 -11.9 -9.6 -19.8 1.2 -5.3 7.1 -11.2 12.7 -12.7 10.1 -2.7 20.2 4.4 21.2 14.9 1.2 13.2 -12.2 22.9 -24.3 17.6z"/>
 </g>
</svg>